<?xml version="1.0" standalone="no"?>
<!DOCTYPE svg PUBLIC "-//W3C//DTD SVG 20010904//EN"
 "http://www.w3.org/TR/2001/REC-SVG-20010904/DTD/svg10.dtd">
<svg version="1.0" xmlns="http://www.w3.org/2000/svg"
 width="300.000000pt" height="300.000000pt" viewBox="0 0 300.000000 300.000000"
 preserveAspectRatio="xMidYMid meet">
<metadata>
Created by potrace 1.14, written by Peter Selinger 2001-2017
</metadata>
<g transform="translate(0.000000,300.000000) scale(0.100000,-0.100000)"
fill="#000000" stroke="none">
<path d="M0 1925 l0 -175 461 0 460 0 -3 -548 -3 -547 -33 -67 c-60 -121 -163
-189 -264 -173 -84 14 -159 62 -374 243 -116 97 -218 183 -227 191 -16 12 -17
-2 -17 -197 l0 -211 118 -100 c64 -54 131 -115 147 -135 l30 -36 417 0 416 0
31 31 c44 43 107 178 136 289 52 201 60 305 59 803 l0 457 403 0 403 0 0 175
0 175 -1080 0 -1080 0 0 -175z"/>
</g>
</svg>
