<?xml version="1.0" standalone="no"?>
<!DOCTYPE svg PUBLIC "-//W3C//DTD SVG 20010904//EN"
 "http://www.w3.org/TR/2001/REC-SVG-20010904/DTD/svg10.dtd">
<svg version="1.0" xmlns="http://www.w3.org/2000/svg"
 width="700.000000pt" height="700.000000pt" viewBox="0 0 700.000000 700.000000"
 preserveAspectRatio="xMidYMid meet">
<metadata>
Created by potrace 1.14, written by Peter Selinger 2001-2017
</metadata>
<g transform="translate(0.000000,700.000000) scale(0.100000,-0.100000)"
fill="#000000" stroke="none">
<path d="M3943 5043 l-913 -3 0 -305 0 -305 633 -1 c347 -1 643 -2 657 -4 14
-1 242 -2 508 -3 l482 -2 0 -1306 0 -1306 -26 -66 c-39 -100 -79 -156 -149
-211 -124 -98 -229 -133 -392 -132 -141 0 -223 19 -341 77 -162 80 -280 209
-386 422 -51 102 -76 184 -76 249 l0 43 -461 0 -460 0 6 -97 c26 -389 203
-742 515 -1029 380 -349 918 -537 1416 -494 70 6 160 18 198 26 97 20 252 70
303 97 23 12 77 41 120 63 303 161 500 444 567 814 18 99 24 548 25 1963 l1
877 415 0 415 0 0 320 0 320 -1072 -2 c-590 -2 -1484 -4 -1985 -5z"/>
</g>
</svg>
